<svg xmlns="http://www.w3.org/2000/svg" viewBox="0 0 40 40"><g transform="translate(40 40) scale(-1 -1)"><g fill="none" stroke="#000" stroke-linecap="round" stroke-width="1.5"><path d="M2 2c10 0 16 5 16 12 0 4.5-3 7-6.5 7S6 18.5 6 16s2-4 4-3.5"/><path d="M2 2c0 10 5 16 12 16" stroke-width="1"/><path d="M18 8.5c5.5-2.6 11-2.6 18 0" stroke-width="1"/><path d="M8.5 18c-2.6 5.5-2.6 11 0 18" stroke-width="1"/></g><g fill="#000"><circle cx="21" cy="21" r="1.8"/><circle cx="38" cy="8.5" r="1.1"/><circle cx="8.5" cy="38" r="1.1"/><path d="M0 0h6L0 6z"/></g></g></svg>
