<svg xmlns="http://www.w3.org/2000/svg" viewBox="0 0 320 24"><defs><linearGradient id="l" x1="1" x2="0"><stop offset="0"/><stop offset="1" stop-opacity="0"/></linearGradient><linearGradient id="r"><stop offset="0"/><stop offset="1" stop-opacity="0"/></linearGradient></defs><rect x="0" y="11.4" width="120" height="1.2" fill="url(#l)"/><rect x="200" y="11.4" width="120" height="1.2" fill="url(#r)"/><path d="M160 3c-3 5-7 7-12 9 5 2 9 4 12 9 3-5 7-7 12-9-5-2-9-4-12-9z"/><g fill="none" stroke="#000" stroke-width="1.2" stroke-linecap="round"><path d="M146 12c-6-6-13-6-17 0 4 6 11 6 17 0M174 12c6-6 13-6 17 0-4 6-11 6-17 0"/><path d="M129 12c-3-3-6-3-8 0M191 12c3-3 6-3 8 0"/></g><circle cx="125" cy="12" r="1.5"/><circle cx="195" cy="12" r="1.5"/></svg>
